<?xml version="1.0" encoding="UTF-8" standalone="no"?><svg xmlns="http://www.w3.org/2000/svg" xmlns:xlink="http://www.w3.org/1999/xlink" contentScriptType="application/ecmascript" contentStyleType="text/css" height="636px" preserveAspectRatio="none" style="width:1264px;height:636px;" version="1.1" viewBox="0 0 1264 636" width="1264px" zoomAndPan="magnify"><defs><filter height="300%" id="f17phrbmg3jm75" width="300%" x="-1" y="-1"><feGaussianBlur result="blurOut" stdDeviation="2.0"/><feColorMatrix in="blurOut" result="blurOut2" type="matrix" values="0 0 0 0 0 0 0 0 0 0 0 0 0 0 0 0 0 0 .4 0"/><feOffset dx="4.0" dy="4.0" in="blurOut2" result="blurOut3"/><feBlend in="SourceGraphic" in2="blurOut3" mode="normal"/></filter></defs><g><!--class WeatherData--><rect fill="#FEFECE" filter="url(#f17phrbmg3jm75)" height="86.4141" id="WeatherData" style="stroke: #A80036; stroke-width: 1.5;" width="115" x="1083.5" y="258"/><ellipse cx="1098.5" cy="274" fill="#ADD1B2" rx="11" ry="11" style="stroke: #A80036; stroke-width: 1.0;"/><path d="M1101.5,279 Q1100.8906,279.5 1100.2344,279.75 Q1099.5781,280 1098.8438,280 Q1096.2344,280 1094.8672,278.4609 Q1093.5,276.9219 1093.5,274 Q1093.5,271.0781 1094.8672,269.5391 Q1096.2344,268 1098.8438,268 Q1099.5781,268 1100.25,268.25 Q1100.9219,268.5 1101.5,269 L1101.5,272 Q1100.8906,270.9688 1100.3125,270.4844 Q1099.7344,270 1099.125,270 Q1097.8281,270 1097.1641,271.0078 Q1096.5,272.0156 1096.5,274 Q1096.5,275.9844 1097.1641,276.9922 Q1097.8281,278 1099.125,278 Q1099.7344,278 1100.3125,277.5156 Q1100.8906,277.0313 1101.5,276 L1101.5,279 Z "/><text fill="#000000" font-family="sans-serif" font-size="12" lengthAdjust="spacingAndGlyphs" textLength="83" x="1112.5" y="278.1543">WeatherData</text><line style="stroke: #A80036; stroke-width: 1.5;" x1="1084.5" x2="1197.5" y1="290" y2="290"/><rect fill="none" height="6" style="stroke: #C82930; stroke-width: 1.0;" width="6" x="1091.5" y="298.9023"/><text fill="#000000" font-family="sans-serif" font-size="11" lengthAdjust="spacingAndGlyphs" textLength="20" x="1103.5" y="304.2104">day</text><rect fill="none" height="6" style="stroke: #C82930; stroke-width: 1.0;" width="6" x="1091.5" y="311.707"/><text fill="#000000" font-family="sans-serif" font-size="11" lengthAdjust="spacingAndGlyphs" textLength="56" x="1103.5" y="317.0151">maxTemp</text><rect fill="none" height="6" style="stroke: #C82930; stroke-width: 1.0;" width="6" x="1091.5" y="324.5117"/><text fill="#000000" font-family="sans-serif" font-size="11" lengthAdjust="spacingAndGlyphs" textLength="53" x="1103.5" y="329.8198">minTemp</text><line style="stroke: #A80036; stroke-width: 1.5;" x1="1084.5" x2="1197.5" y1="336.4141" y2="336.4141"/><!--class FootballTeamData--><rect fill="#FEFECE" filter="url(#f17phrbmg3jm75)" height="86.4141" id="FootballTeamData" style="stroke: #A80036; stroke-width: 1.5;" width="146" x="715" y="258"/><ellipse cx="730" cy="274" fill="#ADD1B2" rx="11" ry="11" style="stroke: #A80036; stroke-width: 1.0;"/><path d="M733,279 Q732.3906,279.5 731.7344,279.75 Q731.0781,280 730.3438,280 Q727.7344,280 726.3672,278.4609 Q725,276.9219 725,274 Q725,271.0781 726.3672,269.5391 Q727.7344,268 730.3438,268 Q731.0781,268 731.75,268.25 Q732.4219,268.5 733,269 L733,272 Q732.3906,270.9688 731.8125,270.4844 Q731.2344,270 730.625,270 Q729.3281,270 728.6641,271.0078 Q728,272.0156 728,274 Q728,275.9844 728.6641,276.9922 Q729.3281,278 730.625,278 Q731.2344,278 731.8125,277.5156 Q732.3906,277.0313 733,276 L733,279 Z "/><text fill="#000000" font-family="sans-serif" font-size="12" lengthAdjust="spacingAndGlyphs" textLength="114" x="744" y="278.1543">FootballTeamData</text><line style="stroke: #A80036; stroke-width: 1.5;" x1="716" x2="860" y1="290" y2="290"/><rect fill="none" height="6" style="stroke: #C82930; stroke-width: 1.0;" width="6" x="723" y="298.9023"/><text fill="#000000" font-family="sans-serif" font-size="11" lengthAdjust="spacingAndGlyphs" textLength="29" x="735" y="304.2104">team</text><rect fill="none" height="6" style="stroke: #C82930; stroke-width: 1.0;" width="6" x="723" y="311.707"/><text fill="#000000" font-family="sans-serif" font-size="11" lengthAdjust="spacingAndGlyphs" textLength="31" x="735" y="317.0151">goals</text><rect fill="none" height="6" style="stroke: #C82930; stroke-width: 1.0;" width="6" x="723" y="324.5117"/><text fill="#000000" font-family="sans-serif" font-size="11" lengthAdjust="spacingAndGlyphs" textLength="74" x="735" y="329.8198">goalsAllowed</text><line style="stroke: #A80036; stroke-width: 1.5;" x1="716" x2="860" y1="336.4141" y2="336.4141"/><!--class App--><rect fill="#FEFECE" filter="url(#f17phrbmg3jm75)" height="48" id="App" style="stroke: #A80036; stroke-width: 1.5;" width="56" x="699" y="8"/><ellipse cx="714" cy="24" fill="#ADD1B2" rx="11" ry="11" style="stroke: #A80036; stroke-width: 1.0;"/><path d="M717,29 Q716.3906,29.5 715.7344,29.75 Q715.0781,30 714.3438,30 Q711.7344,30 710.3672,28.4609 Q709,26.9219 709,24 Q709,21.0781 710.3672,19.5391 Q711.7344,18 714.3438,18 Q715.0781,18 715.75,18.25 Q716.4219,18.5 717,19 L717,22 Q716.3906,20.9688 715.8125,20.4844 Q715.2344,20 714.625,20 Q713.3281,20 712.6641,21.0078 Q712,22.0156 712,24 Q712,25.9844 712.6641,26.9922 Q713.3281,28 714.625,28 Q715.2344,28 715.8125,27.5156 Q716.3906,27.0313 717,26 L717,29 Z "/><text fill="#000000" font-family="sans-serif" font-size="12" lengthAdjust="spacingAndGlyphs" textLength="24" x="728" y="28.1543">App</text><line style="stroke: #A80036; stroke-width: 1.5;" x1="700" x2="754" y1="40" y2="40"/><line style="stroke: #A80036; stroke-width: 1.5;" x1="700" x2="754" y1="48" y2="48"/><!--class TaskSolver--><rect fill="#FEFECE" filter="url(#f17phrbmg3jm75)" height="48" id="TaskSolver" style="stroke: #A80036; stroke-width: 1.5;" width="152" x="450" y="133"/><ellipse cx="465" cy="149" fill="#ADD1B2" rx="11" ry="11" style="stroke: #A80036; stroke-width: 1.0;"/><path d="M468,154 Q467.3906,154.5 466.7344,154.75 Q466.0781,155 465.3438,155 Q462.7344,155 461.3672,153.4609 Q460,151.9219 460,149 Q460,146.0781 461.3672,144.5391 Q462.7344,143 465.3438,143 Q466.0781,143 466.75,143.25 Q467.4219,143.5 468,144 L468,147 Q467.3906,145.9688 466.8125,145.4844 Q466.2344,145 465.625,145 Q464.3281,145 463.6641,146.0078 Q463,147.0156 463,149 Q463,150.9844 463.6641,151.9922 Q464.3281,153 465.625,153 Q466.2344,153 466.8125,152.5156 Q467.3906,152.0313 468,151 L468,154 Z "/><text fill="#000000" font-family="sans-serif" font-size="12" lengthAdjust="spacingAndGlyphs" textLength="67" x="479" y="153.1543">TaskSolver</text><rect fill="#FFFFFF" height="15.9688" style="stroke: #000000; stroke-width: 1.0; stroke-dasharray: 2.0,2.0;" width="51" x="554" y="130"/><text fill="#000000" font-family="sans-serif" font-size="12" font-style="italic" lengthAdjust="spacingAndGlyphs" textLength="49" x="555" y="142.1387">Set&lt;D&gt;</text><line style="stroke: #A80036; stroke-width: 1.5;" x1="451" x2="601" y1="165" y2="165"/><line style="stroke: #A80036; stroke-width: 1.5;" x1="451" x2="601" y1="173" y2="173"/><!--class GenericCsvReader--><rect fill="#FEFECE" filter="url(#f17phrbmg3jm75)" height="48" id="GenericCsvReader" style="stroke: #A80036; stroke-width: 1.5;" width="159" x="93.5" y="277"/><ellipse cx="108.5" cy="293" fill="#ADD1B2" rx="11" ry="11" style="stroke: #A80036; stroke-width: 1.0;"/><path d="M111.5,298 Q110.8906,298.5 110.2344,298.75 Q109.5781,299 108.8438,299 Q106.2344,299 104.8672,297.4609 Q103.5,295.9219 103.5,293 Q103.5,290.0781 104.8672,288.5391 Q106.2344,287 108.8438,287 Q109.5781,287 110.25,287.25 Q110.9219,287.5 111.5,288 L111.5,291 Q110.8906,289.9688 110.3125,289.4844 Q109.7344,289 109.125,289 Q107.8281,289 107.1641,290.0078 Q106.5,291.0156 106.5,293 Q106.5,294.9844 107.1641,295.9922 Q107.8281,297 109.125,297 Q109.7344,297 110.3125,296.5156 Q110.8906,296.0313 111.5,295 L111.5,298 Z "/><text fill="#000000" font-family="sans-serif" font-size="12" lengthAdjust="spacingAndGlyphs" textLength="114" x="122.5" y="297.1543">GenericCsvReader</text><rect fill="#FFFFFF" height="15.9688" style="stroke: #000000; stroke-width: 1.0; stroke-dasharray: 2.0,2.0;" width="11" x="244.5" y="274"/><text fill="#000000" font-family="sans-serif" font-size="12" font-style="italic" lengthAdjust="spacingAndGlyphs" textLength="9" x="245.5" y="286.1387">D</text><line style="stroke: #A80036; stroke-width: 1.5;" x1="94.5" x2="251.5" y1="309" y2="309"/><line style="stroke: #A80036; stroke-width: 1.5;" x1="94.5" x2="251.5" y1="317" y2="317"/><!--class WeatherSpreadCalculator--><rect fill="#FEFECE" filter="url(#f17phrbmg3jm75)" height="48" id="WeatherSpreadCalculator" style="stroke: #A80036; stroke-width: 1.5;" width="276" x="974" y="133"/><ellipse cx="989" cy="149" fill="#ADD1B2" rx="11" ry="11" style="stroke: #A80036; stroke-width: 1.0;"/><path d="M992,154 Q991.3906,154.5 990.7344,154.75 Q990.0781,155 989.3438,155 Q986.7344,155 985.3672,153.4609 Q984,151.9219 984,149 Q984,146.0781 985.3672,144.5391 Q986.7344,143 989.3438,143 Q990.0781,143 990.75,143.25 Q991.4219,143.5 992,144 L992,147 Q991.3906,145.9688 990.8125,145.4844 Q990.2344,145 989.625,145 Q988.3281,145 987.6641,146.0078 Q987,147.0156 987,149 Q987,150.9844 987.6641,151.9922 Q988.3281,153 989.625,153 Q990.2344,153 990.8125,152.5156 Q991.3906,152.0313 992,151 L992,154 Z "/><text fill="#000000" font-family="sans-serif" font-size="12" lengthAdjust="spacingAndGlyphs" textLength="161" x="1003" y="153.1543">WeatherSpreadCalculator</text><rect fill="#FFFFFF" height="15.9688" style="stroke: #000000; stroke-width: 1.0; stroke-dasharray: 2.0,2.0;" width="81" x="1172" y="130"/><text fill="#000000" font-family="sans-serif" font-size="12" font-style="italic" lengthAdjust="spacingAndGlyphs" textLength="79" x="1173" y="142.1387">WeatherData</text><line style="stroke: #A80036; stroke-width: 1.5;" x1="975" x2="1249" y1="165" y2="165"/><line style="stroke: #A80036; stroke-width: 1.5;" x1="975" x2="1249" y1="173" y2="173"/><!--class FootballSpreadCalculator--><rect fill="#FEFECE" filter="url(#f17phrbmg3jm75)" height="48" id="FootballSpreadCalculator" style="stroke: #A80036; stroke-width: 1.5;" width="302" x="637" y="133"/><ellipse cx="652" cy="149" fill="#ADD1B2" rx="11" ry="11" style="stroke: #A80036; stroke-width: 1.0;"/><path d="M655,154 Q654.3906,154.5 653.7344,154.75 Q653.0781,155 652.3438,155 Q649.7344,155 648.3672,153.4609 Q647,151.9219 647,149 Q647,146.0781 648.3672,144.5391 Q649.7344,143 652.3438,143 Q653.0781,143 653.75,143.25 Q654.4219,143.5 655,144 L655,147 Q654.3906,145.9688 653.8125,145.4844 Q653.2344,145 652.625,145 Q651.3281,145 650.6641,146.0078 Q650,147.0156 650,149 Q650,150.9844 650.6641,151.9922 Q651.3281,153 652.625,153 Q653.2344,153 653.8125,152.5156 Q654.3906,152.0313 655,151 L655,154 Z "/><text fill="#000000" font-family="sans-serif" font-size="12" lengthAdjust="spacingAndGlyphs" textLength="158" x="666" y="153.1543">FootballSpreadCalculator</text><rect fill="#FFFFFF" height="15.9688" style="stroke: #000000; stroke-width: 1.0; stroke-dasharray: 2.0,2.0;" width="110" x="832" y="130"/><text fill="#000000" font-family="sans-serif" font-size="12" font-style="italic" lengthAdjust="spacingAndGlyphs" textLength="108" x="833" y="142.1387">FootballTeamData</text><line style="stroke: #A80036; stroke-width: 1.5;" x1="638" x2="938" y1="165" y2="165"/><line style="stroke: #A80036; stroke-width: 1.5;" x1="638" x2="938" y1="173" y2="173"/><!--class ClassLoaderReader--><rect fill="#FEFECE" filter="url(#f17phrbmg3jm75)" height="48" id="ClassLoaderReader" style="stroke: #A80036; stroke-width: 1.5;" width="153" x="229.5" y="374"/><ellipse cx="244.5" cy="390" fill="#ADD1B2" rx="11" ry="11" style="stroke: #A80036; stroke-width: 1.0;"/><path d="M247.5,395 Q246.8906,395.5 246.2344,395.75 Q245.5781,396 244.8438,396 Q242.2344,396 240.8672,394.4609 Q239.5,392.9219 239.5,390 Q239.5,387.0781 240.8672,385.5391 Q242.2344,384 244.8438,384 Q245.5781,384 246.25,384.25 Q246.9219,384.5 247.5,385 L247.5,388 Q246.8906,386.9688 246.3125,386.4844 Q245.7344,386 245.125,386 Q243.8281,386 243.1641,387.0078 Q242.5,388.0156 242.5,390 Q242.5,391.9844 243.1641,392.9922 Q243.8281,394 245.125,394 Q245.7344,394 246.3125,393.5156 Q246.8906,393.0313 247.5,392 L247.5,395 Z "/><text fill="#000000" font-family="sans-serif" font-size="12" lengthAdjust="spacingAndGlyphs" textLength="121" x="258.5" y="394.1543">ClassLoaderReader</text><line style="stroke: #A80036; stroke-width: 1.5;" x1="230.5" x2="381.5" y1="406" y2="406"/><line style="stroke: #A80036; stroke-width: 1.5;" x1="230.5" x2="381.5" y1="414" y2="414"/><!--class SmallestSpreadAnalyzer--><rect fill="#FEFECE" filter="url(#f17phrbmg3jm75)" height="48" id="SmallestSpreadAnalyzer" style="stroke: #A80036; stroke-width: 1.5;" width="194" x="359" y="277"/><ellipse cx="374" cy="293" fill="#ADD1B2" rx="11" ry="11" style="stroke: #A80036; stroke-width: 1.0;"/><path d="M377,298 Q376.3906,298.5 375.7344,298.75 Q375.0781,299 374.3438,299 Q371.7344,299 370.3672,297.4609 Q369,295.9219 369,293 Q369,290.0781 370.3672,288.5391 Q371.7344,287 374.3438,287 Q375.0781,287 375.75,287.25 Q376.4219,287.5 377,288 L377,291 Q376.3906,289.9688 375.8125,289.4844 Q375.2344,289 374.625,289 Q373.3281,289 372.6641,290.0078 Q372,291.0156 372,293 Q372,294.9844 372.6641,295.9922 Q373.3281,297 374.625,297 Q375.2344,297 375.8125,296.5156 Q376.3906,296.0313 377,295 L377,298 Z "/><text fill="#000000" font-family="sans-serif" font-size="12" lengthAdjust="spacingAndGlyphs" textLength="149" x="388" y="297.1543">SmallestSpreadAnalyzer</text><rect fill="#FFFFFF" height="15.9688" style="stroke: #000000; stroke-width: 1.0; stroke-dasharray: 2.0,2.0;" width="11" x="545" y="274"/><text fill="#000000" font-family="sans-serif" font-size="12" font-style="italic" lengthAdjust="spacingAndGlyphs" textLength="9" x="546" y="286.1387">D</text><line style="stroke: #A80036; stroke-width: 1.5;" x1="360" x2="552" y1="309" y2="309"/><line style="stroke: #A80036; stroke-width: 1.5;" x1="360" x2="552" y1="317" y2="317"/><!--class ISpreadCalculator--><rect fill="#FEFECE" filter="url(#f17phrbmg3jm75)" height="48" id="ISpreadCalculator" style="stroke: #A80036; stroke-width: 1.5;" width="152" x="896" y="277"/><ellipse cx="911" cy="293" fill="#B4A7E5" rx="11" ry="11" style="stroke: #A80036; stroke-width: 1.0;"/><path d="M907.5,289 L907.5,287 L914.5,287 L914.5,289 L912.5,289 L912.5,297 L914.5,297 L914.5,299 L907.5,299 L907.5,297 L909.5,297 L909.5,289 L907.5,289 Z "/><text fill="#000000" font-family="sans-serif" font-size="12" font-style="italic" lengthAdjust="spacingAndGlyphs" textLength="107" x="925" y="297.1543">ISpreadCalculator</text><rect fill="#FFFFFF" height="15.9688" style="stroke: #000000; stroke-width: 1.0; stroke-dasharray: 2.0,2.0;" width="11" x="1040" y="274"/><text fill="#000000" font-family="sans-serif" font-size="12" font-style="italic" lengthAdjust="spacingAndGlyphs" textLength="9" x="1041" y="286.1387">D</text><line style="stroke: #A80036; stroke-width: 1.5;" x1="897" x2="1047" y1="309" y2="309"/><line style="stroke: #A80036; stroke-width: 1.5;" x1="897" x2="1047" y1="317" y2="317"/><!--class Closable--><rect fill="#FEFECE" filter="url(#f17phrbmg3jm75)" height="48" id="Closable" style="stroke: #A80036; stroke-width: 1.5;" width="81" x="167.5" y="452"/><ellipse cx="182.5" cy="468" fill="#B4A7E5" rx="11" ry="11" style="stroke: #A80036; stroke-width: 1.0;"/><path d="M179,464 L179,462 L186,462 L186,464 L184,464 L184,472 L186,472 L186,474 L179,474 L179,472 L181,472 L181,464 L179,464 Z "/><text fill="#000000" font-family="sans-serif" font-size="12" font-style="italic" lengthAdjust="spacingAndGlyphs" textLength="49" x="196.5" y="472.1543">Closable</text><line style="stroke: #A80036; stroke-width: 1.5;" x1="168.5" x2="247.5" y1="484" y2="484"/><line style="stroke: #A80036; stroke-width: 1.5;" x1="168.5" x2="247.5" y1="492" y2="492"/><!--class IDataProvider--><rect fill="#FEFECE" filter="url(#f17phrbmg3jm75)" height="48" id="IDataProvider" style="stroke: #A80036; stroke-width: 1.5;" width="126" x="6" y="452"/><ellipse cx="21" cy="468" fill="#B4A7E5" rx="11" ry="11" style="stroke: #A80036; stroke-width: 1.0;"/><path d="M17.5,464 L17.5,462 L24.5,462 L24.5,464 L22.5,464 L22.5,472 L24.5,472 L24.5,474 L17.5,474 L17.5,472 L19.5,472 L19.5,464 L17.5,464 Z "/><text fill="#000000" font-family="sans-serif" font-size="12" font-style="italic" lengthAdjust="spacingAndGlyphs" textLength="81" x="35" y="472.1543">IDataProvider</text><rect fill="#FFFFFF" height="15.9688" style="stroke: #000000; stroke-width: 1.0; stroke-dasharray: 2.0,2.0;" width="11" x="124" y="449"/><text fill="#000000" font-family="sans-serif" font-size="12" font-style="italic" lengthAdjust="spacingAndGlyphs" textLength="9" x="125" y="461.1387">D</text><line style="stroke: #A80036; stroke-width: 1.5;" x1="7" x2="131" y1="484" y2="484"/><line style="stroke: #A80036; stroke-width: 1.5;" x1="7" x2="131" y1="492" y2="492"/><!--class IDataSource--><rect fill="#FEFECE" filter="url(#f17phrbmg3jm75)" height="48" id="IDataSource" style="stroke: #A80036; stroke-width: 1.5;" width="106" x="136" y="577"/><ellipse cx="151" cy="593" fill="#B4A7E5" rx="11" ry="11" style="stroke: #A80036; stroke-width: 1.0;"/><path d="M147.5,589 L147.5,587 L154.5,587 L154.5,589 L152.5,589 L152.5,597 L154.5,597 L154.5,599 L147.5,599 L147.5,597 L149.5,597 L149.5,589 L147.5,589 Z "/><text fill="#000000" font-family="sans-serif" font-size="12" font-style="italic" lengthAdjust="spacingAndGlyphs" textLength="74" x="165" y="597.1543">IDataSource</text><line style="stroke: #A80036; stroke-width: 1.5;" x1="137" x2="241" y1="609" y2="609"/><line style="stroke: #A80036; stroke-width: 1.5;" x1="137" x2="241" y1="617" y2="617"/><!--class Callable--><rect fill="#FEFECE" filter="url(#f17phrbmg3jm75)" height="48" id="Callable" style="stroke: #A80036; stroke-width: 1.5;" width="91" x="588.5" y="277"/><ellipse cx="603.5" cy="293" fill="#B4A7E5" rx="11" ry="11" style="stroke: #A80036; stroke-width: 1.0;"/><path d="M600,289 L600,287 L607,287 L607,289 L605,289 L605,297 L607,297 L607,299 L600,299 L600,297 L602,297 L602,289 L600,289 Z "/><text fill="#000000" font-family="sans-serif" font-size="12" font-style="italic" lengthAdjust="spacingAndGlyphs" textLength="46" x="617.5" y="297.1543">Callable</text><rect fill="#FFFFFF" height="15.9688" style="stroke: #000000; stroke-width: 1.0; stroke-dasharray: 2.0,2.0;" width="11" x="671.5" y="274"/><text fill="#000000" font-family="sans-serif" font-size="12" font-style="italic" lengthAdjust="spacingAndGlyphs" textLength="9" x="672.5" y="286.1387">D</text><line style="stroke: #A80036; stroke-width: 1.5;" x1="589.5" x2="678.5" y1="309" y2="309"/><line style="stroke: #A80036; stroke-width: 1.5;" x1="589.5" x2="678.5" y1="317" y2="317"/><!--link IDataProvider to IDataSource--><path d="M92.1372,500.1013 C113.3865,522.2359 144.707,554.8615 165.9338,576.9727 " fill="none" id="IDataProvider-IDataSource" style="stroke: #A80036; stroke-width: 1.0;"/><text fill="#000000" font-family="sans-serif" font-size="13" lengthAdjust="spacingAndGlyphs" textLength="68" x="138" y="543.0669">get source</text><polygon fill="#000000" points="167.5,552.1328,170.5,558.1328,173.5,552.1328,167.5,552.1328" style="stroke: #000000; stroke-width: 1.0;"/><!--link ClassLoaderReader to IDataSource--><path d="M298.5792,422.3488 C291.6218,443.5684 280.1787,474.803 266,500 C251.323,526.0826 230.5632,552.9002 214.2971,572.3409 " fill="none" id="ClassLoaderReader-IDataSource" style="stroke: #A80036; stroke-width: 1.0; stroke-dasharray: 7.0,7.0;"/><polygon fill="#A80036" points="210.6881,576.6217,219.5474,572.3191,213.911,572.799,213.4311,567.1625,210.6881,576.6217" style="stroke: #A80036; stroke-width: 1.0;"/><!--link FootballSpreadCalculator to ISpreadCalculator--><path d="M826.2143,181.0091 C839.9748,190.0345 855.4426,200.6277 869,211 C894.6379,230.6147 922.0907,254.7754 942.2019,273.1235 " fill="none" id="FootballSpreadCalculator-ISpreadCalculator" style="stroke: #A80036; stroke-width: 1.0; stroke-dasharray: 7.0,7.0;"/><polygon fill="#A80036" points="946.1235,276.7125,942.1849,267.6855,942.4351,273.3368,936.7837,273.587,946.1235,276.7125" style="stroke: #A80036; stroke-width: 1.0;"/><!--link FootballSpreadCalculator to FootballTeamData--><path d="M788,181.1024 C788,201.9993 788,232.7479 788,257.8738 " fill="none" id="FootballSpreadCalculator-FootballTeamData" style="stroke: #A80036; stroke-width: 1.0;"/><text fill="#000000" font-family="sans-serif" font-size="13" lengthAdjust="spacingAndGlyphs" textLength="58" x="789" y="224.0669">generate</text><polygon fill="#000000" points="813.5,233.1328,816.5,239.1328,819.5,233.1328,813.5,233.1328" style="stroke: #000000; stroke-width: 1.0;"/><!--link WeatherSpreadCalculator to ISpreadCalculator--><path d="M1088.5671,181.1024 C1063.9353,206.4379 1025.2247,246.2546 999.2466,272.975 " fill="none" id="WeatherSpreadCalculator-ISpreadCalculator" style="stroke: #A80036; stroke-width: 1.0; stroke-dasharray: 7.0,7.0;"/><polygon fill="#A80036" points="995.5093,276.819,1004.651,273.1544,998.9947,273.234,998.915,267.5777,995.5093,276.819" style="stroke: #A80036; stroke-width: 1.0;"/><!--link WeatherSpreadCalculator to WeatherData--><path d="M1116.8539,181.1024 C1121.0624,201.9993 1127.2548,232.7479 1132.3149,257.8738 " fill="none" id="WeatherSpreadCalculator-WeatherData" style="stroke: #A80036; stroke-width: 1.0;"/><text fill="#000000" font-family="sans-serif" font-size="13" lengthAdjust="spacingAndGlyphs" textLength="58" x="1126" y="224.0669">generate</text><polygon fill="#000000" points="1150.5,233.1328,1153.5,239.1328,1156.5,233.1328,1150.5,233.1328" style="stroke: #000000; stroke-width: 1.0;"/><!--link GenericCsvReader to IDataProvider--><path d="M158.5392,325.333 C139.5235,357.3306 106.1669,413.4596 85.9755,447.4355 " fill="none" id="GenericCsvReader-IDataProvider" style="stroke: #A80036; stroke-width: 1.0; stroke-dasharray: 7.0,7.0;"/><polygon fill="#A80036" points="83.3379,451.8737,91.3744,446.1804,85.8923,447.5754,84.4972,442.0933,83.3379,451.8737" style="stroke: #A80036; stroke-width: 1.0;"/><!--link GenericCsvReader to Closable--><path d="M177.8666,325.333 C184.2139,357.0694 195.309,412.5448 202.1198,446.599 " fill="none" id="GenericCsvReader-Closable" style="stroke: #A80036; stroke-width: 1.0; stroke-dasharray: 7.0,7.0;"/><polygon fill="#A80036" points="203.1747,451.8737,205.3317,442.2639,202.194,446.9708,197.4871,443.8331,203.1747,451.8737" style="stroke: #A80036; stroke-width: 1.0;"/><!--link TaskSolver to Callable--><path d="M544.0768,181.1024 C563.0006,206.3341 592.6964,245.9285 612.7343,272.6458 " fill="none" id="TaskSolver-Callable" style="stroke: #A80036; stroke-width: 1.0; stroke-dasharray: 7.0,7.0;"/><polygon fill="#A80036" points="615.8643,276.819,613.6643,267.219,612.8643,272.819,607.2643,272.019,615.8643,276.819" style="stroke: #A80036; stroke-width: 1.0;"/><!--link TaskSolver to ISpreadCalculator--><path d="M602.2156,178.1316 C697.9445,204.7784 852.8969,248.2972 879,258 C893.6727,263.454 909.2472,270.2394 923.3697,276.7964 " fill="none" id="TaskSolver-ISpreadCalculator" style="stroke: #A80036; stroke-width: 1.0;"/><!--link TaskSolver to ClassLoaderReader--><path d="M451.7613,181.0379 C413.3784,197.0807 368.8613,221.9544 341,258 C314.5701,292.1937 307.8671,343.8723 306.3062,373.9466 " fill="none" id="TaskSolver-ClassLoaderReader" style="stroke: #A80036; stroke-width: 1.0;"/><!--link TaskSolver to GenericCsvReader--><path d="M449.9574,164.1121 C399.6821,171.0748 333.4435,184.6743 280,211 C246.6836,227.4113 214.9711,256.3533 194.8457,276.986 " fill="none" id="TaskSolver-GenericCsvReader" style="stroke: #A80036; stroke-width: 1.0;"/><!--link TaskSolver to SmallestSpreadAnalyzer--><path d="M514.2836,181.1024 C501.362,207.6839 480.6915,250.206 467.7547,276.819 " fill="none" id="TaskSolver-SmallestSpreadAnalyzer" style="stroke: #A80036; stroke-width: 1.0;"/><!--link App to TaskSolver--><path d="M698.9348,36.7168 C666.6229,43.2747 613.2257,57.6808 576,86 C559.8016,98.3228 546.7829,117.3934 538.0949,132.6681 " fill="none" id="App-TaskSolver" style="stroke: #A80036; stroke-width: 1.0;"/><polygon fill="#000000" points="584,93.0664,578,96.0664,584,99.0664,584,93.0664" style="stroke: #000000; stroke-width: 1.0;"/><text fill="#000000" font-family="sans-serif" font-size="13" lengthAdjust="spacingAndGlyphs" textLength="51" x="590" y="99.0669">weather</text><!--link App to TaskSolver--><path d="M703.3613,56.1075 C687.9675,70.9135 666.9219,89.552 646,103 C628.3195,114.3645 607.8489,124.5349 588.8769,132.9018 " fill="none" id="App-TaskSolver" style="stroke: #A80036; stroke-width: 1.0;"/><polygon fill="#000000" points="676,93.0664,670,96.0664,676,99.0664,676,93.0664" style="stroke: #000000; stroke-width: 1.0;"/><text fill="#000000" font-family="sans-serif" font-size="13" lengthAdjust="spacingAndGlyphs" textLength="47" x="682" y="99.0669">football</text><!--link App to FootballSpreadCalculator--><path d="M739.7688,56.0797 C744.6273,65.3826 750.1565,76.1429 755,86 C762.613,101.4935 770.7941,119.0882 777.1059,132.8864 " fill="none" id="App-FootballSpreadCalculator" style="stroke: #A80036; stroke-width: 1.0;"/><!--link App to WeatherSpreadCalculator--><path d="M755.31,41.1915 C814.2656,60.333 951.8665,105.0086 1037.8937,132.9395 " fill="none" id="App-WeatherSpreadCalculator" style="stroke: #A80036; stroke-width: 1.0;"/><!--
@startuml

class WeatherData {
    - day
    - maxTemp
    - minTemp
}

class FootballTeamData {
    - team
    - goals
    - goalsAllowed
}

class App
class TaskSolver<Set<D>>
class GenericCsvReader<D>
class WeatherSpreadCalculator<WeatherData>
class FootballSpreadCalculator<FootballTeamData>
class ClassLoaderReader
class SmallestSpreadAnalyzer<D>
interface ISpreadCalculator<D>
interface Closable
interface IDataProvider<D>
interface IDataSource
interface Callable<D>

IDataProvider - - IDataSource : get source >
ClassLoaderReader ..> IDataSource
FootballSpreadCalculator ..> ISpreadCalculator
FootballSpreadCalculator - - FootballTeamData : generate >
WeatherSpreadCalculator ..> ISpreadCalculator
WeatherSpreadCalculator - - WeatherData : generate >
GenericCsvReader ..> IDataProvider
GenericCsvReader ..> Closable

TaskSolver ..> Callable
TaskSolver - - ISpreadCalculator
TaskSolver - - ClassLoaderReader
TaskSolver - - GenericCsvReader
TaskSolver - - SmallestSpreadAnalyzer

App - - TaskSolver : weather >
App - - TaskSolver : football >
App - - FootballSpreadCalculator
App - - WeatherSpreadCalculator

@enduml

PlantUML version 1.2018.01(Sun Jan 28 19:08:22 CET 2018)
(GPL source distribution)
Java Runtime: OpenJDK Runtime Environment
JVM: OpenJDK 64-Bit Server VM
Java Version: 1.8.0_152-release-1136-b39
Operating System: Linux
OS Version: 4.15.0-23-generic
Default Encoding: UTF-8
Language: en
Country: US
--></g></svg>